# xmcd
#
# Track frame offsets:
#	150
#	13903
#	29271
#	43848
#	56878
#	73549
#	86194
#	99071
#	113431
#	126284
#	140140
#	153999
#	168359
#	181342
#
# Disc length: 2607
#
# Revision: 1
# Processed by: cddbd v1.5.1PL0 Copyright (c) Steve Scherf et al.
# Submitted via: CDex 1.51
# Normalized: r0:TDELIM( - )
#
DISCID=bd0a2d0e
DTITLE=Men of Blues - Vol 1
DYEAR=1998
DGENRE=Blues
TTITLE0=Poor Boy a Long Ways from Home - Barbecue Bob
TTITLE1=Frankie - Mississippi John Hurt
TTITLE2='Tain't Nobody's Bizness If I Do - Frank Stokes
TTITLE3=Black Snake Moan - Blind Lemon Jefferson
TTITLE4=Canned Heat Blues - Tommy Johnson
TTITLE5=Pinetop's Blues - Pinetop Smith
TTITLE6=Police Dog Blues - Blind Blake
TTITLE7=My Black Mama - Pt. 1 - Son House
TTITLE8=Hard Time Killin' Floor Blues - Skip James
TTITLE9=Give Me Your Change - Roosevelt Sykes
TTITLE10=Georgia Rag - Blind Willie McTell
TTITLE11=Midnight Hour Blues - Scrapper Blackwell
TTITLE12=Stone Pony Blues - Charley Patton
TTITLE13=Milk Cow Blues - Kokomo Arnold
EXTD=YEAR: 1998
EXTT0=
EXTT1=
EXTT2=
EXTT3=
EXTT4=
EXTT5=
EXTT6=
EXTT7=
EXTT8=
EXTT9=
EXTT10=
EXTT11=
EXTT12=
EXTT13=
PLAYORDER=
